<svg xmlns="http://www.w3.org/2000/svg" version="1.1" xmlns:xlink="http://www.w3.org/1999/xlink" xmlns:svgjs="http://svgjs.dev/svgjs" width="1000" height="1000"><style>
    #light-icon {
      display: inline;
    }
    #dark-icon {
      display: none;
    }

    @media (prefers-color-scheme: dark) {
      #light-icon {
        display: none;
      }
      #dark-icon {
        display: inline;
      }
    }
  </style><g id="light-icon"><svg xmlns="http://www.w3.org/2000/svg" version="1.1" xmlns:xlink="http://www.w3.org/1999/xlink" xmlns:svgjs="http://svgjs.dev/svgjs" width="1000" height="1000"><g clip-path="url(#SvgjsClipPath1051)"><rect width="1000" height="1000" fill="#ffffff"></rect><g transform="matrix(1.953125,0,0,1.953125,0,0)"><svg xmlns="http://www.w3.org/2000/svg" version="1.1" xmlns:xlink="http://www.w3.org/1999/xlink" xmlns:svgjs="http://svgjs.dev/svgjs" width="512" height="512"><svg xmlns="http://www.w3.org/2000/svg" viewBox="0 0 512 512" width="512" height="512"><defs><clipPath id="SvgjsClipPath1051"><rect width="1000" height="1000" x="0" y="0" rx="350" ry="350"></rect></clipPath></defs><g>
<rect fill="#ffffff" x="0" y="0" width="512" height="512"></rect>
<g>
	<g>
		<g transform="matrix(0.352775046,0,0,0.352775046,173.91397373,128.655471004)">
			<g>
				<path d="M24.478011,409.646891C24.478011,409.646891 -140.443864,653.225039 -140.443864,653.225039 C-145.256364,661.037539 -140.287614,671.193789 -131.178239,672.193764 C-131.178239,672.193764 194.22801,706.678151 194.22801,706.678151 C194.22801,706.678151 24.478011,409.646891 24.478011,409.646891 C24.478011,409.646891 24.478011,409.646891 24.478011,409.646891 ZM-130.740739,566.475009C-130.740739,566.475009 -13.100119,375.303148 -13.100119,375.303148 C-13.100119,375.303148 -132.850114,303.459405 -132.850114,303.459405 C-137.021989,300.959395 -142.318864,303.959392 -142.318864,308.818768 C-142.318864,308.818768 -142.318864,563.209389 -142.318864,563.209389 C-142.318864,569.506262 -134.053239,571.850012 -130.740739,566.475009 C-130.740739,566.475009 -130.740739,566.475009 -130.740739,566.475009 ZM-113.803239,735.490655C-113.803239,735.490655 189.946752,872.45941 189.946752,872.45941 C198.228006,876.287554 207.681136,870.224999 207.681136,861.115645 C207.681136,861.115645 207.681136,758.506249 207.681136,758.506249 C207.681136,758.506249 -110.365738,723.662518 -110.365738,723.662518 C-117.318864,722.881268 -120.100113,732.396887 -113.803239,735.490655 C-113.803239,735.490655 -113.803239,735.490655 -113.803239,735.490655 ZM13.103013,332.709407C13.103013,332.709407 137.993627,109.365644 137.993627,109.365644 C144.774895,98.334395 132.384257,85.53752 121.149879,91.959395 C121.149879,91.959395 -114.49074,246.037518 -114.49074,246.037518 C-118.350114,248.568772 -118.225114,254.256271 -114.287613,256.631266 C-114.287613,256.631266 13.103013,332.709407 13.103013,332.709407 C13.103013,332.709407 13.103013,332.709407 13.103013,332.709407 ZM232.681136,348.615645C232.681136,348.615645 403.321748,348.615645 403.321748,348.615645 C403.321748,348.615645 253.978019,85.521895 253.978019,85.521895 C249.087386,77.584395 240.884261,73.615645 232.681136,73.615645 C224.478011,73.615645 216.274886,77.584395 211.384254,85.521895 C211.384254,85.521895 62.040501,348.615645 62.040501,348.615645 C62.040501,348.615645 232.681136,348.615645 232.681136,348.615645 C232.681136,348.615645 232.681136,348.615645 232.681136,348.615645 ZM598.21239,303.459405C598.21239,303.459405 478.462367,375.318764 478.462367,375.318764 C478.462367,375.318764 596.103005,566.490649 596.103005,566.490649 C599.399905,571.865653 607.681136,569.521903 607.681136,563.209389 C607.681136,563.209389 607.681136,308.818768 607.681136,308.818768 C607.681136,303.959392 602.384238,300.959395 598.21239,303.459405 C598.21239,303.459405 598.21239,303.459405 598.21239,303.459405 ZM452.259259,332.709407C452.259259,332.709407 579.649882,256.615649 579.649882,256.615649 C583.603005,254.240643 583.712392,248.553144 579.853015,246.021889 C579.853015,246.021889 344.212394,91.959395 344.212394,91.959395 C332.978015,85.53752 320.587401,98.334395 327.368646,109.365644 C327.368646,109.365644 452.259259,332.709407 452.259259,332.709407 C452.259259,332.709407 452.259259,332.709407 452.259259,332.709407 ZM575.727992,723.662518C575.727992,723.662518 257.681136,758.490657 257.681136,758.490657 C257.681136,758.490657 257.681136,861.100005 257.681136,861.100005 C257.681136,870.224999 267.134242,876.271914 275.415521,872.44377 C275.415521,872.44377 579.165511,735.475014 579.165511,735.475014 C585.462384,732.396887 582.681136,722.881268 575.727992,723.662518 C575.727992,723.662518 575.727992,723.662518 575.727992,723.662518 ZM440.884261,409.646891C440.884261,409.646891 271.149879,706.678151 271.149879,706.678151 C271.149879,706.678151 596.556144,672.193764 596.556144,672.193764 C605.665498,671.178149 610.634284,661.037539 605.821757,653.225039 C605.821757,653.225039 440.884261,409.646891 440.884261,409.646891 C440.884261,409.646891 440.884261,409.646891 440.884261,409.646891 ZM232.681136,398.615645C232.681136,398.615645 75.759273,398.615645 75.759273,398.615645 C75.759273,398.615645 232.681136,673.22502 232.681136,673.22502 C232.681136,673.22502 389.603,398.615645 389.603,398.615645 C389.603,398.615645 232.681136,398.615645 232.681136,398.615645 C232.681136,398.615645 232.681136,398.615645 232.681136,398.615645 Z" fill="#000000"></path>
			</g>
			<g>
				<path d="M-171.589581,-151.66721Q-194.18582,-151.66721 -212.975083,-148.351457 Q-231.764347,-145.035705 -246.746635,-138.772617 Q-261.728924,-132.509529 -272.904238,-123.790328 Q-284.079551,-115.071128 -291.570696,-104.01862 Q-299.06184,-92.966112 -302.868815,-79.948713 Q-306.67579,-66.931315 -306.67579,-52.440249 Q-306.67579,-41.387741 -304.342483,-30.580844 Q-302.009175,-19.773948 -296.974144,-9.949496 Q-291.939112,-0.125045 -284.202357,8.594156 Q-276.465601,17.313357 -265.78151,24.436084 Q-255.097419,31.558812 -241.097576,36.593843 Q-227.097732,41.628875 -209.782136,44.453404 Q-192.466541,47.277934 -171.589581,47.277934 Q-142.361838,47.277934 -120.134016,41.997291 Q-97.906194,36.716649 -81.941461,27.260614 Q-65.976727,17.80458 -55.906664,5.155598 Q-45.836601,-7.493383 -41.169987,-22.107255 Q-36.503372,-36.721127 -36.503372,-52.440249 Q-36.503372,-81.422381 -51.485661,-103.773008 Q-66.467949,-126.123636 -96.432527,-138.895423 Q-126.397104,-151.66721 -171.589581,-151.66721 Q-171.589581,-151.66721 -171.589581,-151.66721 ZM-171.34397,-73.56282Q-162.747575,-73.56282 -156.852904,-71.59793 Q-150.958233,-69.633039 -147.519675,-66.562898 Q-144.081117,-63.492757 -142.484643,-59.808588 Q-140.88817,-56.124418 -140.88817,-52.440249 Q-140.88817,-49.247302 -141.870615,-46.177161 Q-142.85306,-43.10702 -145.186367,-40.28249 Q-147.519675,-37.45796 -151.081038,-35.370264 Q-154.642402,-33.282569 -159.677433,-32.054512 Q-164.712465,-30.826456 -171.34397,-30.826456 Q-182.642089,-30.826456 -189.519205,-34.019402 Q-196.396321,-37.212349 -199.343657,-42.124575 Q-202.290992,-47.036801 -202.290992,-52.194638 Q-202.290992,-56.124418 -200.694519,-59.931393 Q-199.098045,-63.738368 -195.536682,-66.808509 Q-191.975318,-69.878651 -185.957841,-71.720735 Q-179.940365,-73.56282 -171.34397,-73.56282 Q-171.34397,-73.56282 -171.34397,-73.56282 ZM190.441459,-144.298871C190.441459,-144.298871 190.441459,-69.633039 190.441459,-69.633039 C190.441459,-69.633039 131.249138,-69.633039 131.249138,-69.633039 Q131.249138,-69.633039 131.126332,-69.510234 Q131.003527,-69.387428 130.880721,-69.387428 Q130.757916,-69.387428 130.757916,-69.141817 Q130.757916,-58.33492 130.757916,-47.405218 Q130.757916,-36.475515 130.757916,-25.545813 Q130.757916,-14.616111 130.757916,-3.686408 Q130.757916,7.243294 130.757916,18.172996 Q130.757916,29.102699 130.757916,39.909596 Q28.829231,39.909596 28.829231,39.909596 Q28.829231,21.73436 28.829231,3.559125 Q28.829231,-14.616111 28.829231,-32.791346 Q28.829231,-50.966581 28.829231,-69.141817 Q28.829231,-69.141817 28.829231,-69.264622 Q28.829231,-69.387428 28.706425,-69.510234 Q28.583619,-69.633039 28.460814,-69.633039 Q28.338008,-69.633039 28.338008,-69.633039 Q-30.854312,-69.633039 -30.854312,-69.633039 C-30.854312,-69.633039 -30.854312,-144.298871 -30.854312,-144.298871 C-30.854312,-144.298871 190.441459,-144.298871 190.441459,-144.298871 C190.441459,-144.298871 190.441459,-144.298871 190.441459,-144.298871 ZM494.508234,-144.298871Q494.508234,-125.878024 494.508234,-107.457178 Q494.508234,-89.036331 494.508234,-70.615484 Q494.508234,-52.194638 494.508234,-33.773791 Q494.508234,-15.352944 494.508234,3.067902 Q494.508234,21.488749 494.508234,39.909596 Q399.947888,39.909596 399.947888,39.909596 Q399.947888,14.366022 399.947888,-11.177553 Q399.947888,-36.721127 399.947888,-62.264701 Q399.947888,-62.264701 399.947888,-62.387506 Q399.947888,-62.510312 399.825082,-62.510312 Q399.702277,-62.510312 399.579471,-62.510312 Q399.456665,-62.510312 399.456665,-62.387506 Q399.456665,-62.264701 399.456665,-62.264701 Q375.386759,39.909596 375.386759,39.909596 C375.386759,39.909596 312.755881,39.909596 312.755881,39.909596 Q306.615598,14.366022 300.720927,-10.931941 Q294.826256,-36.229904 288.685974,-61.527867 Q288.685974,-61.527867 288.685974,-61.650672 Q288.685974,-61.773478 288.563169,-61.773478 Q288.440363,-61.773478 288.440363,-61.773478 Q288.440363,-61.773478 288.317557,-61.773478 Q288.194752,-61.773478 288.194752,-61.650672 Q288.194752,-61.527867 288.194752,-61.527867 Q288.194752,-36.229904 288.194752,-10.931941 Q288.194752,14.366022 288.194752,39.909596 Q198.546631,39.909596 198.546631,39.909596 Q198.546631,21.488749 198.546631,2.945097 Q198.546631,-15.598556 198.546631,-34.142208 Q198.546631,-52.68586 198.546631,-71.229513 Q198.546631,-89.773165 198.546631,-108.194012 Q198.546631,-117.281629 198.546631,-126.246441 Q198.546631,-135.211253 198.546631,-144.298871 Q329.457448,-144.298871 329.457448,-144.298871 Q333.141618,-129.070971 336.580176,-113.965877 Q340.018734,-98.860783 343.580097,-83.632883 Q347.141461,-68.404983 350.580019,-53.177083 Q350.580019,-52.931472 350.702825,-52.808666 Q350.82563,-52.68586 350.948436,-52.808666 Q351.071242,-52.931472 351.071242,-53.177083 Q370.720145,-144.298871 370.720145,-144.298871 C370.720145,-144.298871 494.508234,-144.298871 494.508234,-144.298871 C494.508234,-144.298871 494.508234,-144.298871 494.508234,-144.298871 ZM636.962782,47.277934Q617.55949,47.277934 601.103534,44.821821 Q584.647577,42.365708 570.770539,37.699094 Q556.893502,33.032479 545.963799,26.400975 Q535.034097,19.76947 526.683313,11.418686 Q518.332529,3.067902 512.806275,-6.879355 Q507.280021,-16.826612 504.578297,-28.124731 Q501.876573,-39.422851 501.876573,-51.949026 Q501.876573,-72.334763 508.508078,-88.545108 Q515.139583,-104.755454 527.297341,-116.544795 Q539.4551,-128.334137 556.279473,-136.193699 Q573.103847,-144.05326 593.489584,-147.860235 Q613.875321,-151.66721 636.962782,-151.66721 Q677.734256,-151.66721 706.225165,-141.842758 Q734.716075,-132.018307 751.294837,-113.59746 Q767.873599,-95.176613 772.048991,-68.896205 Q667.664193,-51.949026 667.664193,-51.949026 Q667.664193,-57.598086 665.20808,-61.650672 Q662.751967,-65.703259 658.576575,-68.159372 Q654.401183,-70.615484 648.874929,-71.843541 Q643.348675,-73.071597 636.962782,-73.071597 Q628.120775,-73.071597 621.243659,-70.73829 Q614.366543,-68.404983 610.313957,-63.861174 Q606.261371,-59.317365 606.261371,-52.440249 Q606.261371,-48.264857 607.735038,-44.826299 Q609.208706,-41.387741 611.91043,-38.808823 Q614.612154,-36.229904 618.419129,-34.633431 Q622.226104,-33.036957 626.892719,-32.177318 Q631.559333,-31.317678 636.962782,-31.317678 Q649.98018,-31.317678 658.822186,-36.598321 Q667.664193,-41.878964 667.664193,-51.949026 Q772.048991,-41.387741 772.048991,-41.387741 Q769.347266,-23.212506 760.136843,-7.247772 Q750.92642,8.716962 734.593269,20.997526 Q718.260118,33.278091 694.067406,40.278012 Q669.874694,47.277934 636.962782,47.277934 Q636.962782,47.277934 636.962782,47.277934 Z" fill="#000000"></path>
			</g>
		</g>
	</g>
</g></g></svg></svg></g></g></svg></g><g id="dark-icon"><svg xmlns="http://www.w3.org/2000/svg" version="1.1" xmlns:xlink="http://www.w3.org/1999/xlink" xmlns:svgjs="http://svgjs.dev/svgjs" width="1000" height="1000"><g clip-path="url(#SvgjsClipPath1052)"><rect width="1000" height="1000" fill="#ffffff"></rect><g transform="matrix(1.953125,0,0,1.953125,0,0)"><svg xmlns="http://www.w3.org/2000/svg" version="1.1" xmlns:xlink="http://www.w3.org/1999/xlink" xmlns:svgjs="http://svgjs.dev/svgjs" width="512" height="512"><svg xmlns="http://www.w3.org/2000/svg" viewBox="0 0 512 512" width="512" height="512"><defs><clipPath id="SvgjsClipPath1052"><rect width="1000" height="1000" x="0" y="0" rx="350" ry="350"></rect></clipPath></defs><g>
<rect fill="#ffffff" x="0" y="0" width="512" height="512"></rect>
<g>
	<g>
		<g transform="matrix(0.352775046,0,0,0.352775046,173.91397373,128.655471004)">
			<g>
				<path d="M24.478011,409.646891C24.478011,409.646891 -140.443864,653.225039 -140.443864,653.225039 C-145.256364,661.037539 -140.287614,671.193789 -131.178239,672.193764 C-131.178239,672.193764 194.22801,706.678151 194.22801,706.678151 C194.22801,706.678151 24.478011,409.646891 24.478011,409.646891 C24.478011,409.646891 24.478011,409.646891 24.478011,409.646891 ZM-130.740739,566.475009C-130.740739,566.475009 -13.100119,375.303148 -13.100119,375.303148 C-13.100119,375.303148 -132.850114,303.459405 -132.850114,303.459405 C-137.021989,300.959395 -142.318864,303.959392 -142.318864,308.818768 C-142.318864,308.818768 -142.318864,563.209389 -142.318864,563.209389 C-142.318864,569.506262 -134.053239,571.850012 -130.740739,566.475009 C-130.740739,566.475009 -130.740739,566.475009 -130.740739,566.475009 ZM-113.803239,735.490655C-113.803239,735.490655 189.946752,872.45941 189.946752,872.45941 C198.228006,876.287554 207.681136,870.224999 207.681136,861.115645 C207.681136,861.115645 207.681136,758.506249 207.681136,758.506249 C207.681136,758.506249 -110.365738,723.662518 -110.365738,723.662518 C-117.318864,722.881268 -120.100113,732.396887 -113.803239,735.490655 C-113.803239,735.490655 -113.803239,735.490655 -113.803239,735.490655 ZM13.103013,332.709407C13.103013,332.709407 137.993627,109.365644 137.993627,109.365644 C144.774895,98.334395 132.384257,85.53752 121.149879,91.959395 C121.149879,91.959395 -114.49074,246.037518 -114.49074,246.037518 C-118.350114,248.568772 -118.225114,254.256271 -114.287613,256.631266 C-114.287613,256.631266 13.103013,332.709407 13.103013,332.709407 C13.103013,332.709407 13.103013,332.709407 13.103013,332.709407 ZM232.681136,348.615645C232.681136,348.615645 403.321748,348.615645 403.321748,348.615645 C403.321748,348.615645 253.978019,85.521895 253.978019,85.521895 C249.087386,77.584395 240.884261,73.615645 232.681136,73.615645 C224.478011,73.615645 216.274886,77.584395 211.384254,85.521895 C211.384254,85.521895 62.040501,348.615645 62.040501,348.615645 C62.040501,348.615645 232.681136,348.615645 232.681136,348.615645 C232.681136,348.615645 232.681136,348.615645 232.681136,348.615645 ZM598.21239,303.459405C598.21239,303.459405 478.462367,375.318764 478.462367,375.318764 C478.462367,375.318764 596.103005,566.490649 596.103005,566.490649 C599.399905,571.865653 607.681136,569.521903 607.681136,563.209389 C607.681136,563.209389 607.681136,308.818768 607.681136,308.818768 C607.681136,303.959392 602.384238,300.959395 598.21239,303.459405 C598.21239,303.459405 598.21239,303.459405 598.21239,303.459405 ZM452.259259,332.709407C452.259259,332.709407 579.649882,256.615649 579.649882,256.615649 C583.603005,254.240643 583.712392,248.553144 579.853015,246.021889 C579.853015,246.021889 344.212394,91.959395 344.212394,91.959395 C332.978015,85.53752 320.587401,98.334395 327.368646,109.365644 C327.368646,109.365644 452.259259,332.709407 452.259259,332.709407 C452.259259,332.709407 452.259259,332.709407 452.259259,332.709407 ZM575.727992,723.662518C575.727992,723.662518 257.681136,758.490657 257.681136,758.490657 C257.681136,758.490657 257.681136,861.100005 257.681136,861.100005 C257.681136,870.224999 267.134242,876.271914 275.415521,872.44377 C275.415521,872.44377 579.165511,735.475014 579.165511,735.475014 C585.462384,732.396887 582.681136,722.881268 575.727992,723.662518 C575.727992,723.662518 575.727992,723.662518 575.727992,723.662518 ZM440.884261,409.646891C440.884261,409.646891 271.149879,706.678151 271.149879,706.678151 C271.149879,706.678151 596.556144,672.193764 596.556144,672.193764 C605.665498,671.178149 610.634284,661.037539 605.821757,653.225039 C605.821757,653.225039 440.884261,409.646891 440.884261,409.646891 C440.884261,409.646891 440.884261,409.646891 440.884261,409.646891 ZM232.681136,398.615645C232.681136,398.615645 75.759273,398.615645 75.759273,398.615645 C75.759273,398.615645 232.681136,673.22502 232.681136,673.22502 C232.681136,673.22502 389.603,398.615645 389.603,398.615645 C389.603,398.615645 232.681136,398.615645 232.681136,398.615645 C232.681136,398.615645 232.681136,398.615645 232.681136,398.615645 Z" fill="#000000"></path>
			</g>
			<g>
				<path d="M-171.589581,-151.66721Q-194.18582,-151.66721 -212.975083,-148.351457 Q-231.764347,-145.035705 -246.746635,-138.772617 Q-261.728924,-132.509529 -272.904238,-123.790328 Q-284.079551,-115.071128 -291.570696,-104.01862 Q-299.06184,-92.966112 -302.868815,-79.948713 Q-306.67579,-66.931315 -306.67579,-52.440249 Q-306.67579,-41.387741 -304.342483,-30.580844 Q-302.009175,-19.773948 -296.974144,-9.949496 Q-291.939112,-0.125045 -284.202357,8.594156 Q-276.465601,17.313357 -265.78151,24.436084 Q-255.097419,31.558812 -241.097576,36.593843 Q-227.097732,41.628875 -209.782136,44.453404 Q-192.466541,47.277934 -171.589581,47.277934 Q-142.361838,47.277934 -120.134016,41.997291 Q-97.906194,36.716649 -81.941461,27.260614 Q-65.976727,17.80458 -55.906664,5.155598 Q-45.836601,-7.493383 -41.169987,-22.107255 Q-36.503372,-36.721127 -36.503372,-52.440249 Q-36.503372,-81.422381 -51.485661,-103.773008 Q-66.467949,-126.123636 -96.432527,-138.895423 Q-126.397104,-151.66721 -171.589581,-151.66721 Q-171.589581,-151.66721 -171.589581,-151.66721 ZM-171.34397,-73.56282Q-162.747575,-73.56282 -156.852904,-71.59793 Q-150.958233,-69.633039 -147.519675,-66.562898 Q-144.081117,-63.492757 -142.484643,-59.808588 Q-140.88817,-56.124418 -140.88817,-52.440249 Q-140.88817,-49.247302 -141.870615,-46.177161 Q-142.85306,-43.10702 -145.186367,-40.28249 Q-147.519675,-37.45796 -151.081038,-35.370264 Q-154.642402,-33.282569 -159.677433,-32.054512 Q-164.712465,-30.826456 -171.34397,-30.826456 Q-182.642089,-30.826456 -189.519205,-34.019402 Q-196.396321,-37.212349 -199.343657,-42.124575 Q-202.290992,-47.036801 -202.290992,-52.194638 Q-202.290992,-56.124418 -200.694519,-59.931393 Q-199.098045,-63.738368 -195.536682,-66.808509 Q-191.975318,-69.878651 -185.957841,-71.720735 Q-179.940365,-73.56282 -171.34397,-73.56282 Q-171.34397,-73.56282 -171.34397,-73.56282 ZM190.441459,-144.298871C190.441459,-144.298871 190.441459,-69.633039 190.441459,-69.633039 C190.441459,-69.633039 131.249138,-69.633039 131.249138,-69.633039 Q131.249138,-69.633039 131.126332,-69.510234 Q131.003527,-69.387428 130.880721,-69.387428 Q130.757916,-69.387428 130.757916,-69.141817 Q130.757916,-58.33492 130.757916,-47.405218 Q130.757916,-36.475515 130.757916,-25.545813 Q130.757916,-14.616111 130.757916,-3.686408 Q130.757916,7.243294 130.757916,18.172996 Q130.757916,29.102699 130.757916,39.909596 Q28.829231,39.909596 28.829231,39.909596 Q28.829231,21.73436 28.829231,3.559125 Q28.829231,-14.616111 28.829231,-32.791346 Q28.829231,-50.966581 28.829231,-69.141817 Q28.829231,-69.141817 28.829231,-69.264622 Q28.829231,-69.387428 28.706425,-69.510234 Q28.583619,-69.633039 28.460814,-69.633039 Q28.338008,-69.633039 28.338008,-69.633039 Q-30.854312,-69.633039 -30.854312,-69.633039 C-30.854312,-69.633039 -30.854312,-144.298871 -30.854312,-144.298871 C-30.854312,-144.298871 190.441459,-144.298871 190.441459,-144.298871 C190.441459,-144.298871 190.441459,-144.298871 190.441459,-144.298871 ZM494.508234,-144.298871Q494.508234,-125.878024 494.508234,-107.457178 Q494.508234,-89.036331 494.508234,-70.615484 Q494.508234,-52.194638 494.508234,-33.773791 Q494.508234,-15.352944 494.508234,3.067902 Q494.508234,21.488749 494.508234,39.909596 Q399.947888,39.909596 399.947888,39.909596 Q399.947888,14.366022 399.947888,-11.177553 Q399.947888,-36.721127 399.947888,-62.264701 Q399.947888,-62.264701 399.947888,-62.387506 Q399.947888,-62.510312 399.825082,-62.510312 Q399.702277,-62.510312 399.579471,-62.510312 Q399.456665,-62.510312 399.456665,-62.387506 Q399.456665,-62.264701 399.456665,-62.264701 Q375.386759,39.909596 375.386759,39.909596 C375.386759,39.909596 312.755881,39.909596 312.755881,39.909596 Q306.615598,14.366022 300.720927,-10.931941 Q294.826256,-36.229904 288.685974,-61.527867 Q288.685974,-61.527867 288.685974,-61.650672 Q288.685974,-61.773478 288.563169,-61.773478 Q288.440363,-61.773478 288.440363,-61.773478 Q288.440363,-61.773478 288.317557,-61.773478 Q288.194752,-61.773478 288.194752,-61.650672 Q288.194752,-61.527867 288.194752,-61.527867 Q288.194752,-36.229904 288.194752,-10.931941 Q288.194752,14.366022 288.194752,39.909596 Q198.546631,39.909596 198.546631,39.909596 Q198.546631,21.488749 198.546631,2.945097 Q198.546631,-15.598556 198.546631,-34.142208 Q198.546631,-52.68586 198.546631,-71.229513 Q198.546631,-89.773165 198.546631,-108.194012 Q198.546631,-117.281629 198.546631,-126.246441 Q198.546631,-135.211253 198.546631,-144.298871 Q329.457448,-144.298871 329.457448,-144.298871 Q333.141618,-129.070971 336.580176,-113.965877 Q340.018734,-98.860783 343.580097,-83.632883 Q347.141461,-68.404983 350.580019,-53.177083 Q350.580019,-52.931472 350.702825,-52.808666 Q350.82563,-52.68586 350.948436,-52.808666 Q351.071242,-52.931472 351.071242,-53.177083 Q370.720145,-144.298871 370.720145,-144.298871 C370.720145,-144.298871 494.508234,-144.298871 494.508234,-144.298871 C494.508234,-144.298871 494.508234,-144.298871 494.508234,-144.298871 ZM636.962782,47.277934Q617.55949,47.277934 601.103534,44.821821 Q584.647577,42.365708 570.770539,37.699094 Q556.893502,33.032479 545.963799,26.400975 Q535.034097,19.76947 526.683313,11.418686 Q518.332529,3.067902 512.806275,-6.879355 Q507.280021,-16.826612 504.578297,-28.124731 Q501.876573,-39.422851 501.876573,-51.949026 Q501.876573,-72.334763 508.508078,-88.545108 Q515.139583,-104.755454 527.297341,-116.544795 Q539.4551,-128.334137 556.279473,-136.193699 Q573.103847,-144.05326 593.489584,-147.860235 Q613.875321,-151.66721 636.962782,-151.66721 Q677.734256,-151.66721 706.225165,-141.842758 Q734.716075,-132.018307 751.294837,-113.59746 Q767.873599,-95.176613 772.048991,-68.896205 Q667.664193,-51.949026 667.664193,-51.949026 Q667.664193,-57.598086 665.20808,-61.650672 Q662.751967,-65.703259 658.576575,-68.159372 Q654.401183,-70.615484 648.874929,-71.843541 Q643.348675,-73.071597 636.962782,-73.071597 Q628.120775,-73.071597 621.243659,-70.73829 Q614.366543,-68.404983 610.313957,-63.861174 Q606.261371,-59.317365 606.261371,-52.440249 Q606.261371,-48.264857 607.735038,-44.826299 Q609.208706,-41.387741 611.91043,-38.808823 Q614.612154,-36.229904 618.419129,-34.633431 Q622.226104,-33.036957 626.892719,-32.177318 Q631.559333,-31.317678 636.962782,-31.317678 Q649.98018,-31.317678 658.822186,-36.598321 Q667.664193,-41.878964 667.664193,-51.949026 Q772.048991,-41.387741 772.048991,-41.387741 Q769.347266,-23.212506 760.136843,-7.247772 Q750.92642,8.716962 734.593269,20.997526 Q718.260118,33.278091 694.067406,40.278012 Q669.874694,47.277934 636.962782,47.277934 Q636.962782,47.277934 636.962782,47.277934 Z" fill="#000000"></path>
			</g>
		</g>
	</g>
</g></g></svg></svg></g></g></svg></g></svg>